<mxfile modified="2024-04-22T14:15:23.791Z" host="app.diagrams.net" agent="Mozilla/5.0 (X11; Linux x86_64) AppleWebKit/537.36 (KHTML, like Gecko) Chrome/124.0.0.0 Safari/537.36" etag="CVARIpDmzErNlx6p7lbu" version="24.0.7" type="github">
  <diagram id="Ht1M8jgEwFfnCIfOTk4-" name="Page-1">
    <mxGraphModel dx="844" dy="2409" grid="1" gridSize="10" guides="1" tooltips="1" connect="1" arrows="1" fold="1" page="1" pageScale="1" pageWidth="1169" pageHeight="827" math="0" shadow="0">
      <root>
        <mxCell id="0" />
        <mxCell id="1" parent="0" />
        <mxCell id="vprCxGWxDhBr143Cb13M-6" value="Electralink DB" style="sketch=0;html=1;aspect=fixed;strokeColor=none;shadow=0;align=center;fillColor=#2D9C5E;verticalAlign=top;labelPosition=center;verticalLabelPosition=bottom;shape=mxgraph.gcp2.external_data_center" parent="1" vertex="1">
          <mxGeometry x="91.5" y="-1271" width="77" height="100" as="geometry" />
        </mxCell>
        <mxCell id="vprCxGWxDhBr143Cb13M-8" value="Zoho DB" style="sketch=0;html=1;aspect=fixed;strokeColor=none;shadow=0;align=center;fillColor=#2D9C5E;verticalAlign=top;labelPosition=center;verticalLabelPosition=bottom;shape=mxgraph.gcp2.external_data_center" parent="1" vertex="1">
          <mxGeometry x="656.5" y="-840" width="77" height="100" as="geometry" />
        </mxCell>
        <mxCell id="vprCxGWxDhBr143Cb13M-21" style="edgeStyle=orthogonalEdgeStyle;rounded=0;orthogonalLoop=1;jettySize=auto;html=1;" parent="1" source="vprCxGWxDhBr143Cb13M-9" target="vprCxGWxDhBr143Cb13M-8" edge="1">
          <mxGeometry relative="1" as="geometry" />
        </mxCell>
        <mxCell id="vprCxGWxDhBr143Cb13M-10" value="AWS Cloud" style="points=[[0,0],[0.25,0],[0.5,0],[0.75,0],[1,0],[1,0.25],[1,0.5],[1,0.75],[1,1],[0.75,1],[0.5,1],[0.25,1],[0,1],[0,0.75],[0,0.5],[0,0.25]];outlineConnect=0;gradientColor=none;html=1;whiteSpace=wrap;fontSize=12;fontStyle=0;container=0;pointerEvents=0;collapsible=0;recursiveResize=0;shape=mxgraph.aws4.group;grIcon=mxgraph.aws4.group_aws_cloud_alt;strokeColor=#232F3E;fillColor=none;verticalAlign=top;align=left;spacingLeft=30;fontColor=#232F3E;dashed=0;" parent="1" vertex="1">
          <mxGeometry x="320" y="-1585" width="750" height="645" as="geometry" />
        </mxCell>
        <mxCell id="vprCxGWxDhBr143Cb13M-19" style="edgeStyle=orthogonalEdgeStyle;rounded=0;orthogonalLoop=1;jettySize=auto;html=1;endArrow=none;endFill=0;startArrow=classic;startFill=1;" parent="1" source="vprCxGWxDhBr143Cb13M-7" target="vprCxGWxDhBr143Cb13M-6" edge="1">
          <mxGeometry relative="1" as="geometry" />
        </mxCell>
        <mxCell id="H6YpS96diYnmcuf0h5bm-19" style="edgeStyle=orthogonalEdgeStyle;rounded=0;orthogonalLoop=1;jettySize=auto;html=1;entryX=0.96;entryY=0.7;entryDx=0;entryDy=0;entryPerimeter=0;" parent="1" source="H6YpS96diYnmcuf0h5bm-9" target="H6YpS96diYnmcuf0h5bm-17" edge="1">
          <mxGeometry relative="1" as="geometry" />
        </mxCell>
        <mxCell id="vprCxGWxDhBr143Cb13M-9" value="Zoho Analytics API Call" style="image;aspect=fixed;html=1;points=[];align=center;fontSize=12;image=img/lib/azure2/devops/API_Connections.svg;" parent="1" vertex="1">
          <mxGeometry x="661" y="-960" width="68" height="45.32" as="geometry" />
        </mxCell>
        <mxCell id="LjyLm-vrqYKXXPzVkxiu-5" style="edgeStyle=orthogonalEdgeStyle;rounded=0;orthogonalLoop=1;jettySize=auto;html=1;startArrow=classic;startFill=1;endArrow=none;endFill=0;" parent="1" source="vprCxGWxDhBr143Cb13M-9" target="LjyLm-vrqYKXXPzVkxiu-3" edge="1">
          <mxGeometry relative="1" as="geometry" />
        </mxCell>
        <mxCell id="vprCxGWxDhBr143Cb13M-4" value="Authorization Lambda&lt;div&gt;Function&lt;/div&gt;" style="sketch=0;points=[[0,0,0],[0.25,0,0],[0.5,0,0],[0.75,0,0],[1,0,0],[0,1,0],[0.25,1,0],[0.5,1,0],[0.75,1,0],[1,1,0],[0,0.25,0],[0,0.5,0],[0,0.75,0],[1,0.25,0],[1,0.5,0],[1,0.75,0]];outlineConnect=0;fontColor=#232F3E;fillColor=#ED7100;strokeColor=#ffffff;dashed=0;verticalLabelPosition=bottom;verticalAlign=top;align=center;html=1;fontSize=12;fontStyle=0;aspect=fixed;shape=mxgraph.aws4.resourceIcon;resIcon=mxgraph.aws4.lambda;" parent="1" vertex="1">
          <mxGeometry x="890" y="-1555" width="78" height="78" as="geometry" />
        </mxCell>
        <mxCell id="LjyLm-vrqYKXXPzVkxiu-14" style="edgeStyle=orthogonalEdgeStyle;rounded=0;orthogonalLoop=1;jettySize=auto;html=1;" parent="1" source="vprCxGWxDhBr143Cb13M-11" target="LjyLm-vrqYKXXPzVkxiu-3" edge="1">
          <mxGeometry relative="1" as="geometry" />
        </mxCell>
        <mxCell id="vprCxGWxDhBr143Cb13M-11" value="Orchestration Function" style="sketch=0;points=[[0,0,0],[0.25,0,0],[0.5,0,0],[0.75,0,0],[1,0,0],[0,1,0],[0.25,1,0],[0.5,1,0],[0.75,1,0],[1,1,0],[0,0.25,0],[0,0.5,0],[0,0.75,0],[1,0.25,0],[1,0.5,0],[1,0.75,0]];outlineConnect=0;fontColor=#232F3E;fillColor=#ED7100;strokeColor=#ffffff;dashed=0;verticalLabelPosition=bottom;verticalAlign=top;align=center;html=1;fontSize=12;fontStyle=0;aspect=fixed;shape=mxgraph.aws4.resourceIcon;resIcon=mxgraph.aws4.lambda;gradientColor=none;" parent="1" vertex="1">
          <mxGeometry x="656" y="-1260" width="78" height="78" as="geometry" />
        </mxCell>
        <mxCell id="H6YpS96diYnmcuf0h5bm-13" value="" style="edgeStyle=orthogonalEdgeStyle;rounded=0;orthogonalLoop=1;jettySize=auto;html=1;" parent="1" source="H6YpS96diYnmcuf0h5bm-1" target="H6YpS96diYnmcuf0h5bm-9" edge="1">
          <mxGeometry relative="1" as="geometry" />
        </mxCell>
        <mxCell id="H6YpS96diYnmcuf0h5bm-1" value="Cloudwatch Alarm" style="sketch=0;outlineConnect=0;fontColor=#232F3E;gradientColor=none;fillColor=#E7157B;strokeColor=none;dashed=0;verticalLabelPosition=bottom;verticalAlign=top;align=center;html=1;fontSize=12;fontStyle=0;aspect=fixed;pointerEvents=1;shape=mxgraph.aws4.alarm;" parent="1" vertex="1">
          <mxGeometry x="480" y="-1555" width="78" height="78" as="geometry" />
        </mxCell>
        <mxCell id="H6YpS96diYnmcuf0h5bm-3" style="edgeStyle=orthogonalEdgeStyle;rounded=0;orthogonalLoop=1;jettySize=auto;html=1;entryX=0;entryY=0;entryDx=0;entryDy=0;entryPerimeter=0;startArrow=classic;startFill=1;endArrow=none;endFill=0;" parent="1" source="H6YpS96diYnmcuf0h5bm-1" target="vprCxGWxDhBr143Cb13M-11" edge="1">
          <mxGeometry relative="1" as="geometry" />
        </mxCell>
        <mxCell id="H6YpS96diYnmcuf0h5bm-9" value="SNS Notification&lt;div&gt;Dispatch&lt;/div&gt;" style="sketch=0;points=[[0,0,0],[0.25,0,0],[0.5,0,0],[0.75,0,0],[1,0,0],[0,1,0],[0.25,1,0],[0.5,1,0],[0.75,1,0],[1,1,0],[0,0.25,0],[0,0.5,0],[0,0.75,0],[1,0.25,0],[1,0.5,0],[1,0.75,0]];outlineConnect=0;fontColor=#232F3E;fillColor=#E7157B;strokeColor=#ffffff;dashed=0;verticalLabelPosition=bottom;verticalAlign=top;align=center;html=1;fontSize=12;fontStyle=0;aspect=fixed;shape=mxgraph.aws4.resourceIcon;resIcon=mxgraph.aws4.sns;" parent="1" vertex="1">
          <mxGeometry x="380" y="-1555" width="78" height="78" as="geometry" />
        </mxCell>
        <mxCell id="LjyLm-vrqYKXXPzVkxiu-1" value="MPAN Lookup" style="sketch=0;points=[[0,0,0],[0.25,0,0],[0.5,0,0],[0.75,0,0],[1,0,0],[0,1,0],[0.25,1,0],[0.5,1,0],[0.75,1,0],[1,1,0],[0,0.25,0],[0,0.5,0],[0,0.75,0],[1,0.25,0],[1,0.5,0],[1,0.75,0]];outlineConnect=0;fontColor=#232F3E;fillColor=#ED7100;strokeColor=#ffffff;dashed=0;verticalLabelPosition=bottom;verticalAlign=top;align=center;html=1;fontSize=12;fontStyle=0;aspect=fixed;shape=mxgraph.aws4.resourceIcon;resIcon=mxgraph.aws4.lambda;" parent="1" vertex="1">
          <mxGeometry x="480" y="-1260" width="78" height="78" as="geometry" />
        </mxCell>
        <mxCell id="LjyLm-vrqYKXXPzVkxiu-2" value="Address Lookup" style="sketch=0;points=[[0,0,0],[0.25,0,0],[0.5,0,0],[0.75,0,0],[1,0,0],[0,1,0],[0.25,1,0],[0.5,1,0],[0.75,1,0],[1,1,0],[0,0.25,0],[0,0.5,0],[0,0.75,0],[1,0.25,0],[1,0.5,0],[1,0.75,0]];outlineConnect=0;fontColor=#232F3E;fillColor=#ED7100;strokeColor=#ffffff;dashed=0;verticalLabelPosition=bottom;verticalAlign=top;align=center;html=1;fontSize=12;fontStyle=0;aspect=fixed;shape=mxgraph.aws4.resourceIcon;resIcon=mxgraph.aws4.lambda;" parent="1" vertex="1">
          <mxGeometry x="480" y="-1150" width="78" height="78" as="geometry" />
        </mxCell>
        <mxCell id="LjyLm-vrqYKXXPzVkxiu-3" value="Zoho Logging" style="sketch=0;points=[[0,0,0],[0.25,0,0],[0.5,0,0],[0.75,0,0],[1,0,0],[0,1,0],[0.25,1,0],[0.5,1,0],[0.75,1,0],[1,1,0],[0,0.25,0],[0,0.5,0],[0,0.75,0],[1,0.25,0],[1,0.5,0],[1,0.75,0]];outlineConnect=0;fontColor=#232F3E;fillColor=#ED7100;strokeColor=#ffffff;dashed=0;verticalLabelPosition=bottom;verticalAlign=top;align=center;html=1;fontSize=12;fontStyle=0;aspect=fixed;shape=mxgraph.aws4.resourceIcon;resIcon=mxgraph.aws4.lambda;" parent="1" vertex="1">
          <mxGeometry x="656" y="-1110" width="78" height="78" as="geometry" />
        </mxCell>
        <mxCell id="LjyLm-vrqYKXXPzVkxiu-4" value="Meter Data Retrieval" style="sketch=0;points=[[0,0,0],[0.25,0,0],[0.5,0,0],[0.75,0,0],[1,0,0],[0,1,0],[0.25,1,0],[0.5,1,0],[0.75,1,0],[1,1,0],[0,0.25,0],[0,0.5,0],[0,0.75,0],[1,0.25,0],[1,0.5,0],[1,0.75,0]];outlineConnect=0;fontColor=#232F3E;fillColor=#ED7100;strokeColor=#ffffff;dashed=0;verticalLabelPosition=bottom;verticalAlign=top;align=center;html=1;fontSize=12;fontStyle=0;aspect=fixed;shape=mxgraph.aws4.resourceIcon;resIcon=mxgraph.aws4.lambda;" parent="1" vertex="1">
          <mxGeometry x="480" y="-1370" width="78" height="78" as="geometry" />
        </mxCell>
        <mxCell id="vprCxGWxDhBr143Cb13M-3" value="Amazon API Gateway" style="sketch=0;outlineConnect=0;fontColor=#232F3E;gradientColor=none;strokeColor=#ffffff;fillColor=#232F3E;dashed=0;verticalLabelPosition=middle;verticalAlign=bottom;align=center;html=1;whiteSpace=wrap;fontSize=10;fontStyle=1;spacing=3;shape=mxgraph.aws4.productIcon;prIcon=mxgraph.aws4.api_gateway;" parent="1" vertex="1">
          <mxGeometry x="655" y="-1630" width="80" height="110" as="geometry" />
        </mxCell>
        <mxCell id="vprCxGWxDhBr143Cb13M-12" value="" style="edgeStyle=orthogonalEdgeStyle;rounded=0;orthogonalLoop=1;jettySize=auto;html=1;startArrow=classic;startFill=1;" parent="1" source="vprCxGWxDhBr143Cb13M-3" target="vprCxGWxDhBr143Cb13M-11" edge="1">
          <mxGeometry relative="1" as="geometry" />
        </mxCell>
        <mxCell id="vprCxGWxDhBr143Cb13M-14" value="" style="edgeStyle=orthogonalEdgeStyle;rounded=0;orthogonalLoop=1;jettySize=auto;html=1;startArrow=classic;startFill=1;" parent="1" source="vprCxGWxDhBr143Cb13M-3" target="vprCxGWxDhBr143Cb13M-4" edge="1">
          <mxGeometry relative="1" as="geometry" />
        </mxCell>
        <mxCell id="LjyLm-vrqYKXXPzVkxiu-11" style="edgeStyle=orthogonalEdgeStyle;rounded=0;orthogonalLoop=1;jettySize=auto;html=1;entryX=1;entryY=0.5;entryDx=0;entryDy=0;entryPerimeter=0;" parent="1" source="vprCxGWxDhBr143Cb13M-11" target="LjyLm-vrqYKXXPzVkxiu-4" edge="1">
          <mxGeometry relative="1" as="geometry" />
        </mxCell>
        <mxCell id="LjyLm-vrqYKXXPzVkxiu-12" style="edgeStyle=orthogonalEdgeStyle;rounded=0;orthogonalLoop=1;jettySize=auto;html=1;entryX=1;entryY=0.5;entryDx=0;entryDy=0;entryPerimeter=0;" parent="1" source="vprCxGWxDhBr143Cb13M-11" target="LjyLm-vrqYKXXPzVkxiu-1" edge="1">
          <mxGeometry relative="1" as="geometry" />
        </mxCell>
        <mxCell id="LjyLm-vrqYKXXPzVkxiu-13" style="edgeStyle=orthogonalEdgeStyle;rounded=0;orthogonalLoop=1;jettySize=auto;html=1;entryX=1;entryY=0.5;entryDx=0;entryDy=0;entryPerimeter=0;" parent="1" source="vprCxGWxDhBr143Cb13M-11" target="LjyLm-vrqYKXXPzVkxiu-2" edge="1">
          <mxGeometry relative="1" as="geometry" />
        </mxCell>
        <mxCell id="H6YpS96diYnmcuf0h5bm-4" value="IAM Role Assignment" style="sketch=0;outlineConnect=0;fontColor=#232F3E;gradientColor=none;fillColor=#DD344C;strokeColor=none;dashed=0;verticalLabelPosition=bottom;verticalAlign=top;align=center;html=1;fontSize=12;fontStyle=0;aspect=fixed;pointerEvents=1;shape=mxgraph.aws4.role;" parent="1" vertex="1">
          <mxGeometry x="890" y="-1116" width="78" height="44" as="geometry" />
        </mxCell>
        <mxCell id="vprCxGWxDhBr143Cb13M-22" value="Electralink S3 Store" style="sketch=0;points=[[0,0,0],[0.25,0,0],[0.5,0,0],[0.75,0,0],[1,0,0],[0,1,0],[0.25,1,0],[0.5,1,0],[0.75,1,0],[1,1,0],[0,0.25,0],[0,0.5,0],[0,0.75,0],[1,0.25,0],[1,0.5,0],[1,0.75,0]];outlineConnect=0;fontColor=#232F3E;fillColor=#7AA116;strokeColor=#ffffff;dashed=0;verticalLabelPosition=bottom;verticalAlign=top;align=center;html=1;fontSize=12;fontStyle=0;aspect=fixed;shape=mxgraph.aws4.resourceIcon;resIcon=mxgraph.aws4.s3;" parent="1" vertex="1">
          <mxGeometry x="890" y="-1260" width="78" height="78" as="geometry" />
        </mxCell>
        <mxCell id="vprCxGWxDhBr143Cb13M-5" value="DynamoDB Electralink&lt;div&gt;Table&lt;/div&gt;" style="sketch=0;points=[[0,0,0],[0.25,0,0],[0.5,0,0],[0.75,0,0],[1,0,0],[0,1,0],[0.25,1,0],[0.5,1,0],[0.75,1,0],[1,1,0],[0,0.25,0],[0,0.5,0],[0,0.75,0],[1,0.25,0],[1,0.5,0],[1,0.75,0]];outlineConnect=0;fontColor=#232F3E;fillColor=#C925D1;strokeColor=#ffffff;dashed=0;verticalLabelPosition=bottom;verticalAlign=top;align=center;html=1;fontSize=12;fontStyle=0;aspect=fixed;shape=mxgraph.aws4.resourceIcon;resIcon=mxgraph.aws4.dynamodb;" parent="1" vertex="1">
          <mxGeometry x="890" y="-1400" width="78" height="78" as="geometry" />
        </mxCell>
        <mxCell id="vprCxGWxDhBr143Cb13M-7" value="Electralink API Call" style="image;aspect=fixed;html=1;points=[];align=center;fontSize=12;image=img/lib/azure2/devops/API_Connections.svg;" parent="1" vertex="1">
          <mxGeometry x="280" y="-1243.66" width="68" height="45.32" as="geometry" />
        </mxCell>
        <mxCell id="LjyLm-vrqYKXXPzVkxiu-6" style="edgeStyle=orthogonalEdgeStyle;rounded=0;orthogonalLoop=1;jettySize=auto;html=1;entryX=1.015;entryY=0.544;entryDx=0;entryDy=0;entryPerimeter=0;" parent="1" source="LjyLm-vrqYKXXPzVkxiu-4" target="vprCxGWxDhBr143Cb13M-7" edge="1">
          <mxGeometry relative="1" as="geometry" />
        </mxCell>
        <mxCell id="LjyLm-vrqYKXXPzVkxiu-9" style="edgeStyle=orthogonalEdgeStyle;rounded=0;orthogonalLoop=1;jettySize=auto;html=1;entryX=0.993;entryY=0.588;entryDx=0;entryDy=0;entryPerimeter=0;" parent="1" source="LjyLm-vrqYKXXPzVkxiu-1" target="vprCxGWxDhBr143Cb13M-7" edge="1">
          <mxGeometry relative="1" as="geometry" />
        </mxCell>
        <mxCell id="LjyLm-vrqYKXXPzVkxiu-10" style="edgeStyle=orthogonalEdgeStyle;rounded=0;orthogonalLoop=1;jettySize=auto;html=1;entryX=0.993;entryY=0.533;entryDx=0;entryDy=0;entryPerimeter=0;" parent="1" source="LjyLm-vrqYKXXPzVkxiu-2" target="vprCxGWxDhBr143Cb13M-7" edge="1">
          <mxGeometry relative="1" as="geometry" />
        </mxCell>
        <mxCell id="LjyLm-vrqYKXXPzVkxiu-15" style="edgeStyle=orthogonalEdgeStyle;rounded=0;orthogonalLoop=1;jettySize=auto;html=1;entryX=1;entryY=0.5;entryDx=0;entryDy=0;entryPerimeter=0;dashed=1;" parent="1" source="vprCxGWxDhBr143Cb13M-5" target="vprCxGWxDhBr143Cb13M-11" edge="1">
          <mxGeometry relative="1" as="geometry" />
        </mxCell>
        <mxCell id="LjyLm-vrqYKXXPzVkxiu-16" style="edgeStyle=orthogonalEdgeStyle;rounded=0;orthogonalLoop=1;jettySize=auto;html=1;entryX=1;entryY=0.5;entryDx=0;entryDy=0;entryPerimeter=0;dashed=1;" parent="1" source="vprCxGWxDhBr143Cb13M-22" target="vprCxGWxDhBr143Cb13M-11" edge="1">
          <mxGeometry relative="1" as="geometry" />
        </mxCell>
        <mxCell id="LjyLm-vrqYKXXPzVkxiu-17" style="edgeStyle=orthogonalEdgeStyle;rounded=0;orthogonalLoop=1;jettySize=auto;html=1;entryX=1;entryY=0.5;entryDx=0;entryDy=0;entryPerimeter=0;dashed=1;" parent="1" source="H6YpS96diYnmcuf0h5bm-4" target="vprCxGWxDhBr143Cb13M-11" edge="1">
          <mxGeometry relative="1" as="geometry" />
        </mxCell>
        <mxCell id="LjyLm-vrqYKXXPzVkxiu-18" value="" style="group" parent="1" vertex="1" connectable="0">
          <mxGeometry x="50" y="-1590" width="160" height="270" as="geometry" />
        </mxCell>
        <mxCell id="H6YpS96diYnmcuf0h5bm-17" value="" style="ellipse;shape=cloud;whiteSpace=wrap;html=1;movable=1;resizable=1;rotatable=1;deletable=1;editable=1;locked=0;connectable=1;" parent="LjyLm-vrqYKXXPzVkxiu-18" vertex="1">
          <mxGeometry width="160" height="270" as="geometry" />
        </mxCell>
        <mxCell id="H6YpS96diYnmcuf0h5bm-14" value="" style="dashed=0;outlineConnect=0;html=1;align=center;labelPosition=center;verticalLabelPosition=bottom;verticalAlign=top;shape=mxgraph.weblogos.sms;fillColor=#48B921;strokeColor=none;movable=1;resizable=1;rotatable=1;deletable=1;editable=1;locked=0;connectable=1;" parent="LjyLm-vrqYKXXPzVkxiu-18" vertex="1">
          <mxGeometry x="45.39999999999998" y="60" width="69.2" height="64" as="geometry" />
        </mxCell>
        <mxCell id="H6YpS96diYnmcuf0h5bm-16" value="" style="verticalLabelPosition=bottom;html=1;verticalAlign=top;align=center;strokeColor=none;fillColor=#00BEF2;shape=mxgraph.azure.message;pointerEvents=1;movable=1;resizable=1;rotatable=1;deletable=1;editable=1;locked=0;connectable=1;" parent="LjyLm-vrqYKXXPzVkxiu-18" vertex="1">
          <mxGeometry x="45.400000000000034" y="140" width="84" height="57.5" as="geometry" />
        </mxCell>
        <mxCell id="rFwL6j3Ajk4qcMYJ6Uj9-1" style="edgeStyle=orthogonalEdgeStyle;rounded=0;orthogonalLoop=1;jettySize=auto;html=1;entryX=1;entryY=0.25;entryDx=0;entryDy=0;entryPerimeter=0;dashed=1;dashPattern=8 8;startArrow=classic;startFill=1;" edge="1" parent="1" source="vprCxGWxDhBr143Cb13M-3" target="LjyLm-vrqYKXXPzVkxiu-4">
          <mxGeometry relative="1" as="geometry">
            <Array as="points">
              <mxPoint x="630" y="-1575" />
              <mxPoint x="630" y="-1350" />
            </Array>
          </mxGeometry>
        </mxCell>
        <mxCell id="rFwL6j3Ajk4qcMYJ6Uj9-2" style="edgeStyle=orthogonalEdgeStyle;rounded=0;orthogonalLoop=1;jettySize=auto;html=1;entryX=1;entryY=0.25;entryDx=0;entryDy=0;entryPerimeter=0;dashed=1;dashPattern=8 8;startArrow=classic;startFill=1;" edge="1" parent="1" source="vprCxGWxDhBr143Cb13M-3" target="LjyLm-vrqYKXXPzVkxiu-1">
          <mxGeometry relative="1" as="geometry">
            <Array as="points">
              <mxPoint x="630" y="-1575" />
              <mxPoint x="630" y="-1240" />
            </Array>
          </mxGeometry>
        </mxCell>
        <mxCell id="rFwL6j3Ajk4qcMYJ6Uj9-3" style="edgeStyle=orthogonalEdgeStyle;rounded=0;orthogonalLoop=1;jettySize=auto;html=1;entryX=1;entryY=0.25;entryDx=0;entryDy=0;entryPerimeter=0;dashed=1;dashPattern=8 8;startArrow=classic;startFill=1;" edge="1" parent="1" source="vprCxGWxDhBr143Cb13M-3" target="LjyLm-vrqYKXXPzVkxiu-2">
          <mxGeometry relative="1" as="geometry">
            <Array as="points">
              <mxPoint x="630" y="-1575" />
              <mxPoint x="630" y="-1130" />
            </Array>
          </mxGeometry>
        </mxCell>
      </root>
    </mxGraphModel>
  </diagram>
</mxfile>
